<!--?xml version="1.0"?-->
  <svg xmlns="http://www.w3.org/2000/svg" xmlns:xlink="http://www.w3.org/1999/xlink" version="1.1" preserveAspectRatio="xMinYMin meet" viewBox="-2.3437500000000004 -1.6250000000000004 4.687500000000001 3.250000000000001" width="100%" height="100%">
    <path fill="none" stroke="#000000" stroke-width="0.1%" d="M1.26675,-1.5025L1.09275,-1.5025"></path>
    <path fill="none" stroke="#000000" stroke-width="0.1%" d="M1.26675,-1.3015L1.09275,-1.3015"></path>
    <path fill="none" stroke="#000000" stroke-width="0.1%" d="M1.26675,0.8725L1.09275,0.8725"></path>
    <path fill="none" stroke="#000000" stroke-width="0.1%" d="M1.26675,1.0735L1.09275,1.0735"></path>
    <path fill="none" stroke="#000000" stroke-width="0.1%" d="M-2.05575,-1.201L-2.05575,-1.375"></path>
    <path fill="none" stroke="#000000" stroke-width="0.1%" d="M-2.25675,-1.201L-2.25675,-1.375"></path>
    <path fill="none" stroke="#000000" stroke-width="0.1%" d="M2.21875,-1.625L-2.21875,-1.625"></path>
    <path fill="none" stroke="#000000" stroke-width="0.1%" d="M2.34375,1.5L2.34375,-1.5"></path>
    <path fill="none" stroke="#000000" stroke-width="0.1%" d="M-1.84375,1.625L2.21875,1.625"></path>
    <path fill="none" stroke="#000000" stroke-width="0.1%" d="M-1.96875,0.125L-1.96875,1.5"></path>
    <path fill="none" stroke="#000000" stroke-width="0.1%" d="M-2.21875,0L-2.09375,0"></path>
    <path fill="none" stroke="#000000" stroke-width="0.1%" d="M-2.34375,-1.5L-2.34375,-0.125"></path>
    <path fill="none" stroke="#000000" stroke-width="0.1%" d="M-2.25675,-0.201L-2.25675,-0.375"></path>
    <path fill="none" stroke="#000000" stroke-width="0.1%" d="M-2.05575,-0.201L-2.05575,-0.375"></path>
    <path fill="none" stroke="#000000" stroke-width="0.1%" d="M2.05575,1.424L2.05575,1.25"></path>
    <path fill="none" stroke="#000000" stroke-width="0.1%" d="M2.25675,1.424L2.25675,1.25"></path>
    <path fill="none" stroke="#000000" stroke-width="0.1%" d="M2.25675,-1.201L2.25675,-1.375"></path>
    <path fill="none" stroke="#000000" stroke-width="0.1%" d="M2.05575,-1.201L2.05575,-1.375"></path>
    <path fill="none" stroke="#000000" stroke-width="0.1%" d="M-1.23325,1.0735L-1.40725,1.0735"></path>
    <path fill="none" stroke="#000000" stroke-width="0.1%" d="M-1.23325,0.8725L-1.40725,0.8725"></path>
    <path fill="none" stroke="#000000" stroke-width="0.1%" d="M-1.23325,-1.3015L-1.40725,-1.3015"></path>
    <path fill="none" stroke="#000000" stroke-width="0.1%" d="M-1.23325,-1.5025L-1.40725,-1.5025"></path>
    <path fill="none" stroke="#000000" stroke-width="0.1%" d="M0.06225,0.4375L-0.06275,0.4375"></path>
    <path fill="none" stroke="#000000" stroke-width="0.1%" d="M0.06225,0.0625L-0.06275,0.0625"></path>
    <path fill="none" stroke="#000000" stroke-width="0.1%" d="M1.09275,-1.5024999999999997L1.0839908478538605,-1.50211756715822L1.0752983581444737,-1.5009731791777265L1.0667386859671968,-1.499075545542051L1.0583769755957706,-1.4964391083889836L1.05027686469506,-1.493083932597183L1.0425000000000002,-1.4890355530803359L1.03510556814672,-1.4843247804510435L1.028149845226503,-1.478987466533457L1.0216857684907523,-1.473064231509248L1.015762533466543,-1.466600154773497L1.0104252195489567,-1.45964443185328L1.0057144469196642,-1.4522499999999998L1.001666067402817,-1.4444731353049403L0.9983108916110166,-1.4363730244042296L0.995674454457949,-1.4280113140328035L0.9937768208222735,-1.4194516418555265L0.9926324328417799,-1.4107591521461398L0.9922500000000003,-1.4020000000000001L0.9926324328417799,-1.3932408478538605L0.9937768208222734,-1.3845483581444737L0.9956744544579489,-1.3759886859671968L0.9983108916110164,-1.3676269755957704L1.0016660674028168,-1.35952686469506L1.0057144469196642,-1.3517500000000002L1.0104252195489565,-1.34435556814672L1.0157625334665428,-1.337399845226503L1.021685768490752,-1.3309357684907521L1.0281498452265028,-1.325012533466543L1.0351055681467198,-1.3196752195489565L1.0425,-1.3149644469196642L1.0502768646950595,-1.3109160674028169L1.0583769755957702,-1.3075608916110164L1.0667386859671966,-1.3049244544579488L1.0752983581444733,-1.3030268208222733L1.08399084785386,-1.3018824328417797L1.09275,-1.3015"></path>
    <path fill="none" stroke="#000000" stroke-width="0.1%" d="M1.26675,-1.3015L1.2755091521461397,-1.3018824328417797L1.2842016418555264,-1.3030268208222733L1.2927613140328034,-1.3049244544579488L1.3011230244042296,-1.3075608916110162L1.3092231353049402,-1.3109160674028169L1.317,-1.314964446919664L1.32439443185328,-1.3196752195489563L1.331350154773497,-1.3250125334665428L1.3378142315092478,-1.330935768490752L1.3437374665334572,-1.3373998452265028L1.3490747804510435,-1.3443555681467199L1.353785553080336,-1.3517499999999998L1.357833932597183,-1.3595268646950596L1.3611891083889835,-1.3676269755957702L1.3638255455420512,-1.3759886859671964L1.3657231791777267,-1.3845483581444733L1.3668675671582202,-1.39324084785386L1.3672499999999999,-1.4019999999999997L1.3668675671582202,-1.4107591521461393L1.365723179177727,-1.419451641855526L1.3638255455420514,-1.428011314032803L1.3611891083889838,-1.4363730244042294L1.3578339325971833,-1.4444731353049398L1.353785553080336,-1.4522499999999996L1.3490747804510437,-1.4596444318532797L1.3437374665334574,-1.4666001547734968L1.337814231509248,-1.4730642315092477L1.3313501547734974,-1.4789874665334568L1.3243944318532803,-1.4843247804510433L1.3170000000000002,-1.4890355530803356L1.3092231353049406,-1.493083932597183L1.30112302440423,-1.4964391083889834L1.2927613140328036,-1.499075545542051L1.2842016418555269,-1.5009731791777265L1.2755091521461401,-1.50211756715822L1.26675,-1.5024999999999997"></path>
    <path fill="none" stroke="#000000" stroke-width="0.1%" d="M1.09275,0.8725L1.0839908478538605,0.8728824328417797L1.0752983581444737,0.8740268208222731L1.0667386859671968,0.8759244544579488L1.0583769755957704,0.8785608916110162L1.05027686469506,0.8819160674028167L1.0425000000000002,0.8859644469196639L1.03510556814672,0.8906752195489563L1.028149845226503,0.8960125334665427L1.0216857684907523,0.901935768490752L1.015762533466543,0.9083998452265027L1.0104252195489565,0.9153555681467198L1.0057144469196642,0.92275L1.0016660674028168,0.9305268646950596L0.9983108916110165,0.9386269755957701L0.9956744544579489,0.9469886859671965L0.9937768208222734,0.9555483581444734L0.9926324328417798,0.9642408478538601L0.9922500000000002,0.9729999999999998L0.9926324328417798,0.9817591521461394L0.9937768208222733,0.9904516418555263L0.9956744544579488,0.9990113140328031L0.9983108916110164,1.0073730244042294L1.0016660674028168,1.01547313530494L1.005714446919664,1.0232499999999998L1.0104252195489565,1.03064443185328L1.0157625334665428,1.037600154773497L1.0216857684907519,1.0440642315092477L1.0281498452265028,1.049987466533457L1.0351055681467198,1.0553247804510435L1.0425,1.0600355530803358L1.0502768646950595,1.0640839325971831L1.0583769755957702,1.0674391083889836L1.0667386859671966,1.0700755455420512L1.0752983581444733,1.0719731791777267L1.08399084785386,1.0731175671582203L1.09275,1.0735"></path>
    <path fill="none" stroke="#000000" stroke-width="0.1%" d="M1.26675,1.0735L1.2755091521461397,1.0731175671582203L1.2842016418555264,1.0719731791777267L1.2927613140328034,1.0700755455420512L1.3011230244042296,1.0674391083889836L1.3092231353049402,1.0640839325971831L1.317,1.060035553080336L1.32439443185328,1.0553247804510437L1.3313501547734972,1.0499874665334572L1.3378142315092478,1.044064231509248L1.3437374665334572,1.0376001547734972L1.3490747804510435,1.0306444318532801L1.353785553080336,1.02325L1.357833932597183,1.0154731353049404L1.3611891083889838,1.0073730244042298L1.3638255455420514,0.9990113140328034L1.365723179177727,0.9904516418555266L1.3668675671582204,0.9817591521461398L1.3672499999999999,0.9730000000000002L1.3668675671582204,0.9642408478538605L1.365723179177727,0.9555483581444737L1.3638255455420514,0.9469886859671969L1.3611891083889838,0.9386269755957706L1.3578339325971833,0.93052686469506L1.3537855530803362,0.9227500000000003L1.3490747804510437,0.9153555681467201L1.3437374665334574,0.9083998452265031L1.3378142315092483,0.9019357684907522L1.3313501547734974,0.896012533466543L1.3243944318532803,0.8906752195489566L1.3170000000000002,0.8859644469196641L1.3092231353049406,0.8819160674028169L1.30112302440423,0.8785608916110164L1.2927613140328036,0.8759244544579488L1.2842016418555269,0.8740268208222732L1.2755091521461401,0.8728824328417797L1.26675,0.8725"></path>
    <path fill="none" stroke="#000000" stroke-width="0.1%" d="M-2.2567500000000003,-1.201L-2.256367567158221,-1.1922408478538604L-2.2552231791777273,-1.1835483581444735L-2.2533255455420518,-1.1749886859671967L-2.250689108388984,-1.1666269755957703L-2.2473339325971837,-1.1585268646950597L-2.2432855530803364,-1.15075L-2.238574780451044,-1.1433555681467198L-2.2332374665334576,-1.1363998452265027L-2.2273142315092485,-1.1299357684907518L-2.2208501547734976,-1.1240125334665427L-2.2138944318532805,-1.1186752195489562L-2.2065,-1.113964446919664L-2.1987231353049403,-1.1099160674028166L-2.19062302440423,-1.1065608916110161L-2.1822613140328038,-1.1039244544579485L-2.173701641855527,-1.102026820822273L-2.1650091521461396,-1.1008824328417794L-2.15625,-1.1004999999999998L-2.1474908478538604,-1.1008824328417792L-2.1387983581444736,-1.1020268208222728L-2.1302386859671967,-1.1039244544579483L-2.1218769755957703,-1.106560891611016L-2.1137768646950597,-1.1099160674028163L-2.106,-1.1139644469196637L-2.09860556814672,-1.118675219548956L-2.091649845226503,-1.1240125334665423L-2.085185768490752,-1.1299357684907516L-2.079262533466543,-1.1363998452265025L-2.0739252195489564,-1.1433555681467196L-2.0692144469196636,-1.1507499999999997L-2.0651660674028167,-1.1585268646950593L-2.061810891611016,-1.1666269755957699L-2.0591744544579482,-1.1749886859671963L-2.0572768208222727,-1.1835483581444732L-2.056132432841779,-1.19224084785386L-2.0557499999999997,-1.201"></path>
    <path fill="none" stroke="#000000" stroke-width="0.1%" d="M-2.0557499999999997,-1.375L-2.056132432841779,-1.3837591521461396L-2.0572768208222727,-1.3924516418555266L-2.0591744544579482,-1.4010113140328033L-2.061810891611016,-1.4093730244042297L-2.0651660674028163,-1.4174731353049403L-2.0692144469196636,-1.4252500000000001L-2.073925219548956,-1.4326444318532803L-2.0792625334665424,-1.4396001547734973L-2.0851857684907515,-1.4460642315092482L-2.0916498452265024,-1.4519874665334576L-2.0986055681467195,-1.4573247804510439L-2.106,-1.4620355530803364L-2.1137768646950597,-1.4660839325971835L-2.1218769755957703,-1.469439108388984L-2.1302386859671967,-1.4720755455420516L-2.1387983581444736,-1.4739731791777273L-2.1474908478538604,-1.4751175671582206L-2.15625,-1.4755000000000003L-2.1650091521461396,-1.4751175671582208L-2.1737016418555264,-1.4739731791777273L-2.1822613140328033,-1.4720755455420518L-2.1906230244042297,-1.4694391083889842L-2.1987231353049403,-1.4660839325971837L-2.2065,-1.4620355530803364L-2.21389443185328,-1.457324780451044L-2.220850154773497,-1.4519874665334576L-2.227314231509248,-1.4460642315092485L-2.2332374665334576,-1.4396001547734976L-2.2385747804510436,-1.4326444318532805L-2.2432855530803364,-1.4252500000000003L-2.2473339325971837,-1.4174731353049406L-2.250689108388984,-1.40937302440423L-2.2533255455420518,-1.4010113140328035L-2.2552231791777273,-1.3924516418555268L-2.256367567158221,-1.3837591521461399L-2.2567500000000003,-1.375"></path>
    <path fill="none" stroke="#000000" stroke-width="0.1%" d="M2.3437500000000004,-1.5L2.3432743372614686,-1.5108944678434573L2.3418509691265266,-1.5217060222083663L2.339490728286134,-1.5323523806378152L2.336211577598239,-1.5427525179157087L2.3320384733795816,-1.5528272827175875L2.327003175473055,-1.5625000000000002L2.3211440055361243,-1.5716970545438809L2.3145055553898723,-1.5803484512108177L2.3071383476483187,-1.5883883476483187L2.2990984512108175,-1.5957555553898726L2.290447054543881,-1.6023940055361243L2.28125,-1.6082531754730551L2.2715772827175877,-1.6132884733795816L2.2615025179157087,-1.6174615775982388L2.2511023806378154,-1.620740728286134L2.2404560222083663,-1.6231009691265263L2.2296444678434573,-1.6245243372614686L2.21875,-1.6250000000000004"></path>
    <path fill="none" stroke="#000000" stroke-width="0.1%" d="M2.21875,1.6250000000000004L2.2296444678434573,1.6245243372614686L2.2404560222083663,1.6231009691265263L2.251102380637815,1.620740728286134L2.2615025179157087,1.6174615775982388L2.2715772827175877,1.6132884733795816L2.28125,1.6082531754730551L2.290447054543881,1.6023940055361243L2.2990984512108175,1.5957555553898726L2.3071383476483187,1.5883883476483187L2.3145055553898723,1.5803484512108177L2.3211440055361243,1.571697054543881L2.327003175473055,1.5625000000000004L2.3320384733795816,1.5528272827175877L2.336211577598239,1.5427525179157089L2.3394907282861337,1.5323523806378154L2.3418509691265266,1.5217060222083665L2.3432743372614686,1.5108944678434575L2.3437500000000004,1.5"></path>
    <path fill="none" stroke="#000000" stroke-width="0.1%" d="M-1.9687500000000004,1.5L-1.9682743372614686,1.5108944678434573L-1.9668509691265263,1.5217060222083663L-1.964490728286134,1.5323523806378152L-1.9612115775982388,1.5427525179157087L-1.9570384733795816,1.5528272827175875L-1.9520031754730551,1.5625L-1.9461440055361243,1.5716970545438809L-1.9395055553898726,1.5803484512108175L-1.9321383476483187,1.5883883476483187L-1.9240984512108177,1.5957555553898723L-1.915447054543881,1.602394005536124L-1.9062500000000004,1.6082531754730551L-1.8965772827175877,1.6132884733795816L-1.8865025179157089,1.6174615775982388L-1.8761023806378154,1.620740728286134L-1.8654560222083665,1.6231009691265263L-1.8546444678434575,1.6245243372614686L-1.84375,1.6250000000000004"></path>
    <path fill="none" stroke="#000000" stroke-width="0.1%" d="M-1.9687499999999996,0.125L-1.9692256627385314,0.11410553215654269L-1.9706490308734737,0.10329397779163364L-1.973009271713866,0.09264761936218481L-1.9762884224017612,0.08224748208429128L-1.9804615266204184,0.0721727172824124L-1.9854968245269449,0.06249999999999982L-1.9913559944638757,0.05330294545611902L-1.9979944446101274,0.044651548789182344L-2.0053616523516813,0.03661165235168129L-2.0134015487891825,0.029244444610127457L-2.022052945456119,0.022605994463875706L-2.03125,0.016746824526944842L-2.0409227172824123,0.011711526620418425L-2.0509974820842913,0.0075384224017611L-2.0613976193621846,0.0042592717138661L-2.0720439777916337,0.0018990308734736089L-2.0828555321565427,0.00047566273853143215L-2.09375,-3.885780586188048e-16"></path>
    <path fill="none" stroke="#000000" stroke-width="0.1%" d="M-2.3437500000000004,-0.12500000000000003L-2.3432743372614686,-0.11410553215654272L-2.3418509691265266,-0.10329397779163368L-2.339490728286134,-0.09264761936218485L-2.336211577598239,-0.08224748208429133L-2.3320384733795816,-0.07217271728241248L-2.327003175473055,-0.06249999999999989L-2.3211440055361243,-0.053302945456119105L-2.314505555389873,-0.04465154878918243L-2.3071383476483187,-0.03661165235168137L-2.299098451210818,-0.029244444610127554L-2.2904470545438813,-0.022605994463875803L-2.2812500000000004,-0.016746824526944926L-2.2715772827175877,-0.01171152662041848L-2.261502517915709,-0.007538422401761155L-2.2511023806378154,-0.004259271713866142L-2.2404560222083667,-0.0018990308734736366L-2.2296444678434577,-0.00047566273853144603L-2.21875,3.885780586188048e-16"></path>
    <path fill="none" stroke="#000000" stroke-width="0.1%" d="M-2.21875,-1.6250000000000004L-2.2296444678434573,-1.6245243372614686L-2.2404560222083663,-1.6231009691265263L-2.251102380637815,-1.620740728286134L-2.2615025179157087,-1.6174615775982388L-2.2715772827175877,-1.6132884733795816L-2.28125,-1.6082531754730551L-2.290447054543881,-1.6023940055361243L-2.2990984512108175,-1.5957555553898726L-2.3071383476483187,-1.5883883476483187L-2.3145055553898723,-1.5803484512108177L-2.3211440055361243,-1.571697054543881L-2.327003175473055,-1.5625000000000004L-2.3320384733795816,-1.5528272827175877L-2.336211577598239,-1.5427525179157089L-2.3394907282861337,-1.5323523806378154L-2.3418509691265266,-1.5217060222083665L-2.3432743372614686,-1.5108944678434575L-2.3437500000000004,-1.5"></path>
    <path fill="none" stroke="#000000" stroke-width="0.1%" d="M-2.2567500000000003,-0.201L-2.256367567158221,-0.19224084785386036L-2.2552231791777273,-0.18354835814447348L-2.2533255455420518,-0.17498868596719663L-2.250689108388984,-0.16662697559577025L-2.2473339325971837,-0.15852686469505964L-2.2432855530803364,-0.15074999999999994L-2.238574780451044,-0.1433555681467198L-2.2332374665334576,-0.1363998452265027L-2.2273142315092485,-0.12993576849075184L-2.2208501547734976,-0.12401253346654258L-2.2138944318532805,-0.11867521954895617L-2.2065,-0.11396444691966374L-2.1987231353049403,-0.10991606740281648L-2.19062302440423,-0.10656089161101599L-2.1822613140328038,-0.1039244544579484L-2.173701641855527,-0.10202682082227284L-2.1650091521461396,-0.10088243284177931L-2.15625,-0.10049999999999971L-2.1474908478538604,-0.10088243284177927L-2.1387983581444736,-0.10202682082227277L-2.1302386859671967,-0.1039244544579483L-2.1218769755957703,-0.10656089161101585L-2.1137768646950597,-0.10991606740281631L-2.106,-0.11396444691966354L-2.09860556814672,-0.11867521954895593L-2.091649845226503,-0.12401253346654231L-2.085185768490752,-0.12993576849075156L-2.079262533466543,-0.1363998452265024L-2.0739252195489564,-0.14335556814671946L-2.0692144469196636,-0.15074999999999958L-2.0651660674028167,-0.15852686469505928L-2.061810891611016,-0.1666269755957699L-2.0591744544579482,-0.17498868596719627L-2.0572768208222727,-0.1835483581444731L-2.056132432841779,-0.19224084785385998L-2.0557499999999997,-0.20099999999999998"></path>
    <path fill="none" stroke="#000000" stroke-width="0.1%" d="M-2.0557499999999997,-0.375L-2.056132432841779,-0.38375915214613965L-2.0572768208222727,-0.39245164185552656L-2.0591744544579482,-0.40101131403280343L-2.061810891611016,-0.4093730244042298L-2.0651660674028163,-0.4174731353049404L-2.0692144469196636,-0.42525000000000013L-2.073925219548956,-0.4326444318532803L-2.0792625334665424,-0.4396001547734974L-2.0851857684907515,-0.44606423150924823L-2.0916498452265024,-0.4519874665334575L-2.0986055681467195,-0.4573247804510439L-2.106,-0.46203555308033634L-2.1137768646950597,-0.46608393259718356L-2.1218769755957703,-0.46943910838898406L-2.1302386859671967,-0.47207554554205167L-2.1387983581444736,-0.4739731791777272L-2.1474908478538604,-0.47511756715822073L-2.15625,-0.4755000000000003L-2.1650091521461396,-0.47511756715822073L-2.1737016418555264,-0.4739731791777272L-2.1822613140328033,-0.47207554554205167L-2.1906230244042297,-0.4694391083889841L-2.1987231353049403,-0.4660839325971836L-2.2065,-0.4620355530803364L-2.21389443185328,-0.45732478045104397L-2.220850154773497,-0.4519874665334576L-2.227314231509248,-0.44606423150924834L-2.2332374665334576,-0.4396001547734975L-2.2385747804510436,-0.43264443185328044L-2.2432855530803364,-0.4252500000000003L-2.2473339325971837,-0.41747313530494057L-2.250689108388984,-0.40937302440423L-2.2533255455420518,-0.4010113140328036L-2.2552231791777273,-0.3924516418555268L-2.256367567158221,-0.38375915214613987L-2.2567500000000003,-0.375"></path>
    <path fill="none" stroke="#000000" stroke-width="0.1%" d="M2.05575,1.424L2.0561324328417796,1.4327591521461396L2.057276820822273,1.4414516418555263L2.0591744544579487,1.4500113140328033L2.0618108916110165,1.4583730244042294L2.0651660674028167,1.46647313530494L2.069214446919664,1.4742499999999998L2.0739252195489564,1.48164443185328L2.079262533466543,1.4886001547734968L2.085185768490752,1.4950642315092477L2.091649845226503,1.500987466533457L2.09860556814672,1.5063247804510433L2.106,1.5110355530803359L2.1137768646950597,1.515083932597183L2.1218769755957703,1.5184391083889834L2.1302386859671967,1.521075545542051L2.138798358144473,1.5229731791777266L2.1474908478538604,1.52411756715822L2.15625,1.5244999999999997L2.165009152146139,1.52411756715822L2.1737016418555264,1.5229731791777268L2.182261314032803,1.5210755455420513L2.1906230244042293,1.5184391083889837L2.19872313530494,1.5150839325971832L2.2064999999999997,1.5110355530803359L2.2138944318532796,1.5063247804510436L2.2208501547734967,1.5009874665334573L2.2273142315092476,1.495064231509248L2.233237466533457,1.4886001547734973L2.238574780451043,1.4816444318532802L2.243285553080336,1.47425L2.247333932597183,1.4664731353049405L2.2506891083889835,1.45837302440423L2.253325545542051,1.4500113140328035L2.255223179177727,1.4414516418555268L2.2563675671582204,1.43275915214614L2.25675,1.424"></path>
    <path fill="none" stroke="#000000" stroke-width="0.1%" d="M2.25675,1.25L2.2563675671582204,1.2412408478538604L2.255223179177727,1.2325483581444736L2.2533255455420513,1.2239886859671967L2.2506891083889835,1.2156269755957703L2.2473339325971833,1.2075268646950599L2.243285553080336,1.19975L2.2385747804510436,1.19235556814672L2.233237466533457,1.1853998452265029L2.227314231509248,1.1789357684907522L2.220850154773497,1.1730125334665429L2.21389443185328,1.1676752195489566L2.2065,1.162964446919664L2.1987231353049403,1.158916067402817L2.1906230244042297,1.1555608916110165L2.1822613140328033,1.1529244544579489L2.1737016418555264,1.1510268208222734L2.1650091521461396,1.1498824328417798L2.15625,1.1495000000000002L2.1474908478538604,1.1498824328417798L2.1387983581444736,1.1510268208222734L2.1302386859671967,1.1529244544579489L2.1218769755957703,1.1555608916110163L2.11377686469506,1.1589160674028167L2.1060000000000003,1.162964446919664L2.09860556814672,1.1676752195489564L2.091649845226503,1.1730125334665429L2.085185768490752,1.178935768490752L2.079262533466543,1.1853998452265029L2.0739252195489564,1.19235556814672L2.069214446919664,1.1997499999999999L2.065166067402817,1.2075268646950597L2.0618108916110165,1.2156269755957703L2.059174454457949,1.2239886859671965L2.057276820822273,1.2325483581444734L2.0561324328417796,1.2412408478538601L2.05575,1.25"></path>
    <path fill="none" stroke="#000000" stroke-width="0.1%" d="M2.05575,-1.201L2.0561324328417796,-1.1922408478538604L2.057276820822273,-1.1835483581444737L2.0591744544579487,-1.1749886859671967L2.0618108916110165,-1.1666269755957706L2.0651660674028167,-1.15852686469506L2.069214446919664,-1.1507500000000002L2.0739252195489564,-1.14335556814672L2.079262533466543,-1.1363998452265032L2.085185768490752,-1.1299357684907523L2.091649845226503,-1.124012533466543L2.09860556814672,-1.1186752195489567L2.106,-1.1139644469196641L2.1137768646950597,-1.109916067402817L2.1218769755957703,-1.1065608916110166L2.1302386859671967,-1.103924454457949L2.138798358144473,-1.1020268208222734L2.1474908478538604,-1.10088243284178L2.15625,-1.1005000000000003L2.165009152146139,-1.10088243284178L2.1737016418555264,-1.1020268208222732L2.182261314032803,-1.1039244544579487L2.1906230244042293,-1.1065608916110163L2.19872313530494,-1.1099160674028168L2.2064999999999997,-1.1139644469196641L2.2138944318532796,-1.1186752195489564L2.2208501547734967,-1.1240125334665427L2.2273142315092476,-1.129935768490752L2.233237466533457,-1.1363998452265027L2.238574780451043,-1.1433555681467198L2.243285553080336,-1.15075L2.247333932597183,-1.1585268646950595L2.2506891083889835,-1.16662697559577L2.253325545542051,-1.1749886859671965L2.255223179177727,-1.1835483581444732L2.2563675671582204,-1.19224084785386L2.25675,-1.201"></path>
    <path fill="none" stroke="#000000" stroke-width="0.1%" d="M2.25675,-1.375L2.2563675671582204,-1.3837591521461396L2.255223179177727,-1.3924516418555264L2.2533255455420513,-1.4010113140328033L2.2506891083889835,-1.4093730244042297L2.2473339325971833,-1.4174731353049401L2.243285553080336,-1.42525L2.2385747804510436,-1.43264443185328L2.233237466533457,-1.4396001547734971L2.227314231509248,-1.4460642315092478L2.220850154773497,-1.4519874665334571L2.21389443185328,-1.4573247804510434L2.2065,-1.462035553080336L2.1987231353049403,-1.466083932597183L2.1906230244042297,-1.4694391083889835L2.1822613140328033,-1.4720755455420511L2.1737016418555264,-1.4739731791777266L2.1650091521461396,-1.4751175671582202L2.15625,-1.4754999999999998L2.1474908478538604,-1.4751175671582202L2.1387983581444736,-1.4739731791777266L2.1302386859671967,-1.4720755455420511L2.1218769755957703,-1.4694391083889837L2.11377686469506,-1.4660839325971833L2.1060000000000003,-1.462035553080336L2.09860556814672,-1.4573247804510436L2.091649845226503,-1.4519874665334571L2.085185768490752,-1.446064231509248L2.079262533466543,-1.4396001547734971L2.0739252195489564,-1.43264443185328L2.069214446919664,-1.4252500000000001L2.065166067402817,-1.4174731353049403L2.0618108916110165,-1.4093730244042297L2.059174454457949,-1.4010113140328035L2.057276820822273,-1.3924516418555266L2.0561324328417796,-1.3837591521461399L2.05575,-1.375"></path>
    <path fill="none" stroke="#000000" stroke-width="0.1%" d="M-1.23325,1.0735L-1.2244908478538603,1.0731175671582203L-1.2157983581444736,1.0719731791777267L-1.2072386859671966,1.0700755455420512L-1.1988769755957704,1.0674391083889836L-1.1907768646950598,1.0640839325971831L-1.183,1.060035553080336L-1.17560556814672,1.0553247804510437L-1.1686498452265028,1.0499874665334572L-1.1621857684907522,1.044064231509248L-1.1562625334665428,1.0376001547734972L-1.1509252195489565,1.0306444318532801L-1.146214446919664,1.02325L-1.142166067402817,1.0154731353049404L-1.1388108916110162,1.0073730244042298L-1.1361744544579486,0.9990113140328034L-1.134276820822273,0.9904516418555266L-1.1331324328417796,0.9817591521461398L-1.1327500000000001,0.9730000000000002L-1.1331324328417796,0.9642408478538605L-1.134276820822273,0.9555483581444737L-1.1361744544579486,0.9469886859671969L-1.1388108916110162,0.9386269755957706L-1.1421660674028167,0.93052686469506L-1.1462144469196638,0.9227500000000003L-1.1509252195489563,0.9153555681467201L-1.1562625334665426,0.9083998452265031L-1.1621857684907517,0.9019357684907522L-1.1686498452265026,0.896012533466543L-1.1756055681467197,0.8906752195489566L-1.1829999999999998,0.8859644469196641L-1.1907768646950594,0.8819160674028169L-1.19887697559577,0.8785608916110164L-1.2072386859671964,0.8759244544579488L-1.2157983581444731,0.8740268208222732L-1.2244908478538599,0.8728824328417797L-1.23325,0.8725"></path>
    <path fill="none" stroke="#000000" stroke-width="0.1%" d="M-1.40725,0.8725L-1.4160091521461395,0.8728824328417797L-1.4247016418555263,0.8740268208222731L-1.4332613140328032,0.8759244544579488L-1.4416230244042296,0.8785608916110162L-1.44972313530494,0.8819160674028167L-1.4574999999999998,0.8859644469196639L-1.46489443185328,0.8906752195489563L-1.471850154773497,0.8960125334665427L-1.4783142315092477,0.901935768490752L-1.484237466533457,0.9083998452265027L-1.4895747804510435,0.9153555681467198L-1.4942855530803358,0.92275L-1.4983339325971832,0.9305268646950596L-1.5016891083889836,0.9386269755957701L-1.5043255455420512,0.9469886859671965L-1.5062231791777267,0.9555483581444734L-1.5073675671582203,0.9642408478538601L-1.5077499999999997,0.9729999999999998L-1.5073675671582203,0.9817591521461394L-1.5062231791777267,0.9904516418555263L-1.5043255455420512,0.9990113140328031L-1.5016891083889836,1.0073730244042294L-1.4983339325971832,1.01547313530494L-1.494285553080336,1.0232499999999998L-1.4895747804510435,1.03064443185328L-1.4842374665334572,1.037600154773497L-1.4783142315092481,1.0440642315092477L-1.4718501547734972,1.049987466533457L-1.4648944318532802,1.0553247804510435L-1.4575,1.0600355530803358L-1.4497231353049405,1.0640839325971831L-1.4416230244042298,1.0674391083889836L-1.4332613140328034,1.0700755455420512L-1.4247016418555267,1.0719731791777267L-1.41600915214614,1.0731175671582203L-1.40725,1.0735"></path>
    <path fill="none" stroke="#000000" stroke-width="0.1%" d="M-1.40725,-1.5024999999999997L-1.4160091521461395,-1.50211756715822L-1.4247016418555263,-1.5009731791777265L-1.4332613140328032,-1.499075545542051L-1.4416230244042294,-1.4964391083889836L-1.44972313530494,-1.493083932597183L-1.4574999999999998,-1.4890355530803359L-1.46489443185328,-1.4843247804510435L-1.471850154773497,-1.478987466533457L-1.4783142315092477,-1.473064231509248L-1.484237466533457,-1.466600154773497L-1.4895747804510433,-1.45964443185328L-1.4942855530803358,-1.4522499999999998L-1.498333932597183,-1.4444731353049403L-1.5016891083889834,-1.4363730244042296L-1.504325545542051,-1.4280113140328035L-1.5062231791777265,-1.4194516418555265L-1.50736756715822,-1.4107591521461398L-1.5077499999999997,-1.4020000000000001L-1.50736756715822,-1.3932408478538605L-1.5062231791777267,-1.3845483581444737L-1.5043255455420512,-1.3759886859671968L-1.5016891083889836,-1.3676269755957704L-1.4983339325971832,-1.35952686469506L-1.4942855530803358,-1.3517500000000002L-1.4895747804510435,-1.34435556814672L-1.4842374665334572,-1.337399845226503L-1.478314231509248,-1.3309357684907521L-1.4718501547734972,-1.325012533466543L-1.4648944318532802,-1.3196752195489565L-1.4575,-1.3149644469196642L-1.4497231353049405,-1.3109160674028169L-1.4416230244042298,-1.3075608916110164L-1.4332613140328034,-1.3049244544579488L-1.4247016418555267,-1.3030268208222733L-1.41600915214614,-1.3018824328417797L-1.40725,-1.3015"></path>
    <path fill="none" stroke="#000000" stroke-width="0.1%" d="M-1.23325,-1.3015L-1.2244908478538603,-1.3018824328417797L-1.2157983581444736,-1.3030268208222733L-1.2072386859671966,-1.3049244544579488L-1.1988769755957704,-1.3075608916110162L-1.1907768646950598,-1.3109160674028169L-1.183,-1.314964446919664L-1.17560556814672,-1.3196752195489563L-1.168649845226503,-1.3250125334665428L-1.1621857684907522,-1.330935768490752L-1.1562625334665428,-1.3373998452265028L-1.1509252195489565,-1.3443555681467199L-1.146214446919664,-1.3517499999999998L-1.142166067402817,-1.3595268646950596L-1.1388108916110165,-1.3676269755957702L-1.1361744544579488,-1.3759886859671964L-1.1342768208222733,-1.3845483581444733L-1.1331324328417798,-1.39324084785386L-1.1327500000000001,-1.4019999999999997L-1.1331324328417798,-1.4107591521461393L-1.134276820822273,-1.419451641855526L-1.1361744544579486,-1.428011314032803L-1.1388108916110162,-1.4363730244042294L-1.1421660674028167,-1.4444731353049398L-1.146214446919664,-1.4522499999999996L-1.1509252195489563,-1.4596444318532797L-1.1562625334665426,-1.4666001547734968L-1.162185768490752,-1.4730642315092477L-1.1686498452265026,-1.4789874665334568L-1.1756055681467197,-1.4843247804510433L-1.1829999999999998,-1.4890355530803356L-1.1907768646950594,-1.493083932597183L-1.19887697559577,-1.4964391083889834L-1.2072386859671964,-1.499075545542051L-1.2157983581444731,-1.5009731791777265L-1.2244908478538599,-1.50211756715822L-1.23325,-1.5024999999999997"></path>
    <path fill="none" stroke="#000000" stroke-width="0.1%" d="M0.062249999999999965,0.4375000000000001L0.07859170176518586,0.43678650589220236L0.09480903331254939,0.43465145368978914L0.11077857095672258,0.4311110924292004L0.1263787768735628,0.42619236639735797L0.14149092407638109,0.41993271006937205L0.15599999999999992,0.4123797632095824L0.16979558181582108,0.40359100830418615L0.18277267681622605,0.3936333330848086L0.1948325214724776,0.3825825214724779L0.20588333308480833,0.37052267681622636L0.2158410083041859,0.3575455818158214L0.2246297632095822,0.3437500000000003L0.23218271006937183,0.32924092407638145L0.23844236639735783,0.3141287768735632L0.24336109242920034,0.29852857095672297L0.24690145368978908,0.2825590333125498L0.24903650589220236,0.2663417017651863L0.2497500000000001,0.2500000000000004L0.24903650589220244,0.2336582982348145L0.2469014536897892,0.21744096668745094L0.2433610924292005,0.20147142904327775L0.23844236639735808,0.1858712231264375L0.23218271006937216,0.17075907592361922L0.22462976320958258,0.1562500000000004L0.21584100830418634,0.1424544181841792L0.20588333308480883,0.1294773231837742L0.19483252147247812,0.11741747852752266L0.18277267681622664,0.1063666669151919L0.16979558181582172,0.09640899169581427L0.15600000000000058,0.08762023679041797L0.14149092407638175,0.08006728993062828L0.12637877687356353,0.07380763360264228L0.1107785709567233,0.06888890757079977L0.09480903331255014,0.065348546310211L0.07859170176518662,0.06321349410779767L0.062250000000000055,0.06249999999999989"></path>
    <path fill="none" stroke="#000000" stroke-width="0.1%" d="M-0.06274999999999999,0.0625L-0.07909170176518587,0.0632134941077977L-0.09530903331254939,0.06534854631021098L-0.11127857095672258,0.06888890757079968L-0.1268787768735628,0.07380763360264214L-0.14199092407638106,0.08006728993062809L-0.1564999999999999,0.0876202367904177L-0.17029558181582102,0.09640899169581396L-0.183272676816226,0.10636666691519153L-0.1953325214724775,0.11741747852752221L-0.20638333308480825,0.12947732318377372L-0.21634100830418584,0.14245441818417867L-0.22512976320958214,0.15624999999999978L-0.23268271006937177,0.1707590759236186L-0.23894236639735772,0.18587122312643684L-0.24386109242920023,0.20147142904327708L-0.24740145368978897,0.21744096668745025L-0.24953650589220225,0.23365829823481377L-0.25025,0.24999999999999964L-0.2495365058922023,0.2663417017651855L-0.24740145368978908,0.28255903331254906L-0.24386109242920043,0.29852857095672225L-0.23894236639735797,0.31412877687356244L-0.23268271006937205,0.3292409240763807L-0.22512976320958247,0.3437499999999996L-0.21634100830418626,0.35754558181582075L-0.20638333308480872,0.37052267681622575L-0.195332521472478,0.3825825214724773L-0.18327267681622655,0.393633333084808L-0.1702955818158216,0.4035910083041856L-0.1565000000000005,0.4123797632095819L-0.1419909240763817,0.4199327100693716L-0.12687877687356347,0.4261923663973576L-0.11127857095672326,0.43111109242920015L-0.09530903331255008,0.4346514536897889L-0.07909170176518658,0.43678650589220225L-0.06275000000000003,0.4375"></path>
  </svg>